# xmcd
#
# Track frame offsets: 
#        150
#        16468
#        35292
#        53387
#        69857
#        85339
#        101906
#        119579
#        143601
#        157613
#        172929
#        193159
#        210585
#        234672
#
# Disc length: 3404 seconds
#
# Revision: 0
# Processed by: cddbd v1.5.1PL2 Copyright (c) Steve Scherf et al.
# Submitted via: ExactAudioCopy v0.95b4
#
DISCID=ae0d4a0e
DTITLE=John Sprott - Ain't Worried
DYEAR=2006
DGENRE=Blues
TTITLE0=Ain't Worried
TTITLE1=Issues
TTITLE2=Proud of the Blues
TTITLE3=Stumblin' and Staggerin'
TTITLE4=Sweepstakes
TTITLE5=2000 Flushes
TTITLE6=Winnin' With a Losin' Hand
TTITLE7=Little Rocks
TTITLE8=Starlight
TTITLE9=On This Watch I Shall Remain
TTITLE10=Oklahoma 3/4 Moon
TTITLE11=Knee Walkin' Heartbroke
TTITLE12=Reelin' From the Blow
TTITLE13=Christmas Guitars
EXTD=
EXTT0=
EXTT1=
EXTT2=
EXTT3=
EXTT4=
EXTT5=
EXTT6=
EXTT7=
EXTT8=
EXTT9=
EXTT10=
EXTT11=
EXTT12=
EXTT13=
PLAYORDER=
